<svg width="1037" height="309" viewBox="0 0 1037 309" fill="none" xmlns="http://www.w3.org/2000/svg">
<rect x="3.5" y="3.5" width="1030" height="302" rx="41.5" fill="black" stroke="#A6A6A6" stroke-width="7"/>
<path d="M450.482 203.582H429.979L409.986 127.481L389.773 203.582H368.817L341.328 104.666H359.925L379.748 183.347L401.389 104.666H420.173L440.515 183.814L459.342 104.666H477.299L450.482 203.582Z" fill="white"/>
<path d="M503.584 111.901C503.584 114.575 502.599 116.803 500.629 118.586C498.705 120.369 496.359 121.26 493.592 121.26C490.824 121.26 488.478 120.369 486.554 118.586C484.631 116.804 483.669 114.575 483.669 111.901C483.669 109.18 484.631 106.905 486.554 105.075C488.525 103.245 490.871 102.33 493.592 102.33C496.453 102.33 498.823 103.269 500.699 105.145C502.623 107.022 503.584 109.274 503.584 111.901L503.584 111.901ZM485.036 203.578V132.293H501.655V203.578H485.036Z" fill="white"/>
<path d="M565.616 203.582V163.892C565.616 153.493 562.39 144.522 551.914 144.522C541.493 144.522 534.884 153.906 534.884 163.399V203.58H518.628V132.295H534.884V142.378H535.166C540.561 134.026 548.349 131.093 558.529 131.093C566.176 131.093 572.087 132.975 576.263 137.854C580.485 142.733 582.339 150.146 582.339 160.092V203.579L565.616 203.582Z" fill="white"/>
<path d="M647.246 203.582V194.405H646.964C641.804 203.084 631.269 205.085 623.925 205.085C602.097 205.085 594.088 188.129 594.088 170.085C594.088 158.122 597.067 148.551 603.025 141.373C609.03 134.148 617.052 131.021 627.092 131.021C642.721 131.021 646.965 139.717 646.965 139.717H647.246V98.4624H664.108V203.582L647.246 203.582ZM647.386 162.961C647.386 154.35 641.853 144.566 630.173 144.566C616.812 144.566 611.62 156.193 611.62 169.594C611.62 181.293 616.52 191.911 629.243 192.088C641.719 192.088 647.285 180.197 647.386 170.368V162.961Z" fill="white"/>
<path d="M749.175 167.624C749.175 192.316 734.418 205.692 712.256 205.692C688.157 205.692 675.804 191.265 675.804 169.172C675.804 143.896 690.606 130.749 714.015 130.749C735.464 130.749 749.175 144.46 749.175 167.624ZM731.863 168.187C731.863 157.201 727.969 144.99 713.1 144.99C698.839 144.99 693.298 155.603 693.298 168.609C693.298 182.739 699.953 191.726 712.998 191.726C726.974 191.726 731.762 181 731.863 168.187H731.863Z" fill="white"/>
<path d="M838.372 203.582H820.031L806.011 151.99L790.971 203.582H773.17L752.431 132.515H769.835L783.378 187.727L799.207 132.515H815.531L829.644 187.584L842.846 132.515H858.796L838.372 203.582Z" fill="white"/>
<path d="M911 183.738C911 199.609 896.608 205.795 882.181 205.795C872.785 205.795 863.429 202.176 863.429 202.176V185.295C863.429 185.295 871.561 192.382 882.922 192.47C890.71 192.47 894.218 190.014 894.218 185.338C894.41 181.587 892.126 179.518 889.396 177.968C887.519 176.842 884.587 175.458 880.599 173.816C875.908 171.798 872.413 169.851 870.114 167.975C867.862 166.098 866.173 163.893 865.047 161.36C863.968 158.827 863.171 156.043 863.171 152.665C863.171 139.849 873.86 130.794 890.944 130.794C902.236 130.794 907.13 133.563 907.13 133.563V149.6C907.13 149.6 899.105 144.054 890.767 144.004C884.792 144.004 880.275 146.179 880.196 151.101C880.154 157.446 887.923 160.539 892.562 162.416C899.318 165.137 904.262 168.042 907.03 171.373C909.798 174.704 911 178.058 911 183.739L911 183.738Z" fill="white"/>
<path d="M203.565 71.0488H124.816V149.798H203.565V71.0488Z" fill="white"/>
<path d="M290.955 71.0488H212.205V149.798H290.955V71.0488Z" fill="white"/>
<path d="M203.565 158.446H124.816V237.195H203.565V158.446Z" fill="white"/>
<path d="M290.955 158.446H212.205V237.195H290.955V158.446Z" fill="white"/>
</svg>
